Coordinates	
version=1	
nRows=251	
nColumns=2	
inDegrees=yes	
endheader	
time	shoulder_elv
3.757338232	-3.48124686
3.759896145	-3.330820069
3.762454057	-3.178753594
3.764568654	-3.051822931
3.766683252	-2.923821326
3.769636491	-2.743297186
3.772100651	-2.591142277
3.774564811	-2.4376353
3.77702897	-2.282820318
3.77949313	-2.126721316
3.78195729	-1.969385576
3.784101719	-1.831475163
3.786246148	-1.692677281
3.789077984	-1.508057848
3.79147945	-1.350351163
3.793880916	-1.19162246
3.796282382	-1.031911935
3.798683848	-0.871242227
3.801085314	-0.709654678
3.80348678	-0.54717069
3.805888246	-0.383832292
3.808289712	-0.219659195
3.810691178	-0.05469454
3.813092644	0.11104419
3.81549411	0.27751222
3.817572231	0.422143656
3.819650352	0.567280724
3.822354161	0.756850162
3.824810953	0.929782538
3.827267745	1.10333828
3.829724536	1.277477071
3.831756135	1.421905638
3.833787734	1.566694308
3.836500996	1.76060486
3.839214258	1.955090393
3.841154576	2.094508763
3.843094893	2.23418484
3.845979511	2.442291916
3.848487436	2.623627494
3.85099536	2.805315506
3.853129041	2.960136775
3.855262721	3.115174405
3.857396402	3.270403452
3.860146704	3.470754068
3.862482298	3.641092915
3.864817892	3.811598205
3.867153485	3.982237749
3.869489079	4.153000591
3.871824672	4.323852965
3.874160266	4.494786609
3.876229734	4.646282186
3.878299203	4.797809437
3.880839973	4.983858306
3.883380743	5.169904604
3.885389584	5.316972875
3.887398426	5.46401193
3.89005878	5.658663676
3.892317433	5.823842434
3.894576086	5.988920918
3.89683474	6.1538902
3.899093393	6.318725724
3.901352046	6.483418532
3.903610699	6.647944111
3.905869353	6.812294941
3.908128006	6.976446197
3.910386659	7.140390892
3.912645313	7.304104869
3.914903966	7.467581775
3.917162619	7.630796828
3.919421273	7.793745707
3.921679926	7.95640267
3.923938579	8.118764541
3.926197232	8.280805582
3.928455886	8.442523882
3.930714539	8.603892386
3.932729632	8.747565336
3.934744724	8.890940928
3.937176082	9.063533493
3.939607439	9.235665073
3.941631897	9.378634063
3.943656355	9.521262091
3.946098204	9.692838264
3.948540054	9.8638912
3.950518228	10.00207679
3.952496402	10.13990013
3.955015399	10.31487472
3.957534397	10.48923448
3.959346438	10.6142782
3.96115848	10.73898876
3.963931907	10.92921479
3.96631109	11.09175536
3.968690272	11.25369429
3.970662168	11.38743786
3.972634065	11.52075342
3.975086864	11.6859658
3.977539664	11.85049032
3.979505579	11.98184349
3.981471494	12.11274128
3.983957577	12.27760357
3.986186261	12.42475641
3.988414945	12.57128737
3.990643628	12.71719659
3.992872312	12.86246512
3.995100996	13.00709585
3.99704518	13.13272587
3.998989365	13.25785784
4.00142019	13.41359378
4.003851015	13.56852951
4.005811575	13.69289418
4.007772136	13.81672738
4.010225169	13.97090181
4.012678202	14.12422397
4.014541221	14.24008523
4.01640424	14.35544609
4.01898009	14.51410619
4.021287763	14.65541592
4.023595435	14.79592437
4.025517192	14.91232614
4.027438949	15.02816222
4.029897173	15.17551005
4.032355397	15.32191783
4.034192744	15.43073432
4.036030091	15.53901624
4.038676999	15.69406855
4.041001564	15.82931117
4.043326129	15.96368602
4.045201283	16.07143696
4.047076437	16.17861569
4.049581096	16.32086888
4.052085755	16.46208361
4.053932489	16.56552762
4.055779223	16.66840091
4.058317199	16.80883564
4.060855174	16.94817519
4.062693452	17.04840493
4.064531729	17.14805464
4.067065346	17.28443349
4.069598962	17.41969378
4.071463961	17.51853336
4.07332896	17.61676142
4.075837321	17.74789787
4.078345682	17.87791287
4.080178248	17.9721801
4.082010815	18.06584409
4.084537061	18.19396115
4.087063308	18.32091665
4.088907492	18.41285158
4.090751675	18.50416318
4.093260663	18.62737836
4.095769651	18.74942567
4.097630166	18.83916435
4.099490681	18.92825661
4.101988688	19.04684726
4.104486694	19.16425948
4.106317112	19.24953541
4.108147529	19.33417504
4.110660138	19.44931169
4.113172748	19.56323615
4.115020083	19.64621353
4.116867419	19.72853236
4.119359462	19.8385251
4.121851506	19.94730725
4.123700153	20.02721238
4.125548801	20.10644824
4.128041234	20.21220708
4.130533667	20.31673772
4.132374147	20.39312832
4.134214628	20.46884654
4.136709717	20.57041095
4.139204806	20.67072825
4.141049346	20.7440788
4.142893886	20.81674539
4.145377611	20.91350167
4.147861337	21.00900711
4.149704652	21.07906973
4.151547968	21.14844121
4.154030523	21.24076715
4.156513078	21.33182935
4.158359667	21.39873543
4.160206256	21.46494041
4.162682511	21.55260972
4.165158766	21.63900859
4.167000237	21.70242704
4.168841708	21.76514125
4.171319511	21.8484053
4.173797314	21.93038506
4.175644871	21.99066843
4.177492427	22.05023635
4.179961249	22.12870799
4.18243007	22.20589335
4.184272077	22.26263581
4.186114084	22.31866105
4.188586296	22.3927171
4.191058508	22.46547278
4.192905364	22.51896789
4.19475222	22.57173639
4.197216325	22.64099981
4.199680431	22.70896176
4.201523334	22.75893179
4.203366236	22.80817311
4.205832785	22.87292807
4.208299333	22.93637006
4.210145716	22.98299364
4.2119921	23.02888102
4.21445229	23.08886968
4.21691248	23.14754407
4.218755922	23.19064023
4.220599365	23.23299819
4.223061158	23.28840403
4.225522952	23.3424865
4.227369119	23.38216851
4.229215287	23.42110622
4.231671952	23.47175669
4.234128616	23.52108273
4.235972498	23.55722747
4.237816379	23.59262621
4.240274168	23.63864192
4.242731957	23.68332608
4.244578009	23.71600544
4.246424062	23.74793396
4.248877721	23.78920037
4.251331381	23.82913454
4.253175642	23.8582663
4.255019904	23.88664594
4.257474383	23.92324044
4.259928862	23.95849733
4.261774898	23.98412589
4.263620935	24.00899855
4.26607213	24.04084813
4.268523325	24.0713599
4.270367891	24.09343137
4.272212456	24.11474619
4.274664362	24.14189939
4.277116268	24.16771089
4.278962374	24.18625276
4.28080848	24.20403516
4.283257781	24.22644729
4.285707082	24.24751815
4.28755188	24.26249624
4.289396677	24.27671473
4.291846764	24.294416
4.294296851	24.31077336
4.296143103	24.32220481
4.297989355	24.33287466
4.300437366	24.34583984
4.302885378	24.35746229
4.304730329	24.36532774
4.30657528	24.37243221
4.309024312	24.38067956
4.311473344	24.38758261
4.313319845	24.39189199
